<svg height="512" viewBox="0 0 64 64" width="512" xmlns="http://www.w3.org/2000/svg"><g id="Flat"><g id="Color_copy" data-name="Color copy"><path d="m30.192 30.192a31.385 31.385 0 0 0 -22.192-9.192 12 12 0 0 1 12-12 13.91 13.91 0 0 1 13.759 11.87l1.037 7a2.714 2.714 0 0 1 -4.604 2.322z" fill="#e9f1f2"/><path d="m21.96 20.3-13.92-.02a12 12 0 0 1 3.72-8 11.507 11.507 0 0 1 1.49-1.2 2.235 2.235 0 0 0 2.41 1.15 12.057 12.057 0 0 1 2.34-.23 13.913 13.913 0 0 1 13.76 11.87 2.243 2.243 0 0 0 2.45 1.91l.27-.03.32 2.16a2.7 2.7 0 0 1 -2.7 3.1 2.63 2.63 0 0 1 -1.89-.8z" fill="#d0d8da"/><path d="m33 57h-1v-9a4 4 0 0 0 -4-4h-6v3a4 4 0 0 0 4 4v6a4 4 0 0 0 4 4h7a4 4 0 0 0 -4-4z" fill="#e53935"/><path d="m59.278 22.926a5.146 5.146 0 0 1 -5.894 3.54l-5.7-1.005-2.784 15.757a17 17 0 0 1 -19.69 13.79l-14.822-2.614c-.138-.024-.285-.05-.421-.084a8.785 8.785 0 0 1 -6.712-10.079 8.1 8.1 0 0 1 .26-1.071 7.006 7.006 0 0 1 7.909-4.83l4.746.837a4 4 0 0 1 -4.633 3.245l-.865-.153a2.087 2.087 0 0 0 -2.349 1.27 2 2 0 0 0 1.534 2.648l3.939.7a10 10 0 0 0 11.585-8.117 9.988 9.988 0 0 1 5.434-7.236 19.615 19.615 0 0 0 9.832-10.313l.025-.063.092-.522a6.488 6.488 0 0 1 8.7-4.921 6.542 6.542 0 0 1 1.643.925l.874.656a6.653 6.653 0 0 0 2.888 1.287l5.187.915a1 1 0 0 1 .763 1.335z" fill="#ef5350"/><path d="m59.28 22.93a5.164 5.164 0 0 1 -5.9 3.54l-5.7-1.01-2.78 15.76a17 17 0 0 1 -19.69 13.79l-14.82-2.62c-.14-.02-.29-.05-.42-.08a8.793 8.793 0 0 1 -6.72-10.08c.07-.35.15-.71.26-1.07a7.382 7.382 0 0 1 .69-1.54 8.781 8.781 0 0 0 6.77 9.69c.13.03.28.06.42.08l10.82 1.62a17 17 0 0 0 19.69-13.79l1.4-7.92a7.339 7.339 0 0 1 9.08-5.83 5.361 5.361 0 0 0 4.457-1.245 1.531 1.531 0 0 1 2.443.7z" fill="#e53935"/><path d="m46.867 30.08-1.967 11.138a17 17 0 0 1 -19.69 13.79l-14.575-2.57a24.688 24.688 0 0 1 15.532-2.338l2.865.505a6 6 0 0 0 6.951-4.866l1.042-5.909a11.963 11.963 0 0 1 4.931-7.752 11.809 11.809 0 0 1 4.911-1.998z" fill="#fcea42"/><path d="m29.03 50.6-2.86-.5q-.315-.06-.63-.09a4.073 4.073 0 0 0 1.048 1.177 16.919 16.919 0 0 1 -4.378-.177l-5.25-.79a24.809 24.809 0 0 0 -6.33 2.22l14.58 2.57a17 17 0 0 0 19.69-13.79l1.97-11.14a11.423 11.423 0 0 0 -3.96 1.4l-.818 4.647-1.092-.127a2 2 0 0 0 -1.3-1.87 11.832 11.832 0 0 0 -2.57 5.21 2.976 2.976 0 0 0 1.87.66h2.146a16.9 16.9 0 0 1 -6.166 8.14l-.069.054a11.509 11.509 0 0 1 -5.881 2.406z" fill="#fdc741"/><path d="m35.457 14.167 2.892-.861a7.386 7.386 0 0 1 6.5 1.147l.919.681a1.875 1.875 0 0 1 .388 2.621 1.873 1.873 0 0 1 -3.039-.042 7.385 7.385 0 0 0 -4.765-3.036z" fill="#e9f1f2"/><path d="m27.192 35.192a31.385 31.385 0 0 0 -22.192-9.192 12 12 0 0 1 12-12 13.91 13.91 0 0 1 13.759 11.87l1.037 7a2.714 2.714 0 0 1 -4.604 2.322z" fill="#e53935"/><path d="m27.192 35.192a2.683 2.683 0 0 0 3.541.255l-.974-6.577a13.91 13.91 0 0 0 -13.759-11.87 11.975 11.975 0 0 0 -10.785 6.772 11.959 11.959 0 0 0 -.182 1.573 7 7 0 0 1 12.932 2.955 6.995 6.995 0 0 1 8.92 5.421 7.117 7.117 0 0 1 .109 1.279c.065.068.134.128.198.192z" fill="#c62828"/><path d="m12 19a7 7 0 0 1 6.965 6.3 6.993 6.993 0 0 1 8.249 9.911 2.7 2.7 0 0 0 4.586-2.305l-1.041-7.036a13.91 13.91 0 0 0 -13.759-11.87 11.99 11.99 0 0 0 -11.964 11.284 7 7 0 0 1 6.964-6.284z" fill="#e9f1f2"/><path d="m37 57h-1v-9a4 4 0 0 0 -4-4h-6v3a4 4 0 0 0 4 4v6a4 4 0 0 0 4 4h7a4 4 0 0 0 -4-4z" fill="#ff7373"/><path d="m41 61h-7a4 4 0 0 1 -4-4v-6a4 4 0 0 1 -4-4v-3h2v1a4 4 0 0 0 2.241 3.594 2.983 2.983 0 0 1 1.759 2.65v3.337a4.109 4.109 0 0 0 4 4.419h2.91a2.056 2.056 0 0 1 2.09 1.978z" fill="#ef5350"/><path d="m41 34a2 2 0 0 0 -2-2h-3v3a3 3 0 0 0 3 3h11a3.315 3.315 0 0 0 -2.985-3.3z" fill="#ff7373"/><path d="m47.68 25.46-.61 3.43a5.367 5.367 0 0 1 -3.26-4.94 5.275 5.275 0 0 1 .45-2.14 3.018 3.018 0 0 0 2.44 3.48z" fill="#e53935"/><path d="m29.1 36.01a2.63 2.63 0 0 1 -1.89-.8 6.971 6.971 0 0 0 -4.77-10.06 7.125 7.125 0 0 0 -3.48.15 7 7 0 0 0 -13.92-.02 12 12 0 0 1 3.72-8 11.507 11.507 0 0 1 1.49-1.2 2.235 2.235 0 0 0 2.41 1.15 12.057 12.057 0 0 1 2.34-.23 13.913 13.913 0 0 1 13.76 11.87 2.243 2.243 0 0 0 2.45 1.91l.27-.03.32 2.16a2.7 2.7 0 0 1 -2.7 3.1z" fill="#d0d8da"/><path d="m46.16 17.75a1.871 1.871 0 0 1 -3.04-.04 7.387 7.387 0 0 0 -4.77-3.03l-2.89-.51 2.89-.86a6.8 6.8 0 0 1 1.33-.26 7.344 7.344 0 0 1 3.44 2.66 1.871 1.871 0 0 0 3.04.04.375.375 0 0 0 .07-.12 1.853 1.853 0 0 1 -.07 2.12z" fill="#d0d8da"/><circle cx="50.056" cy="17.756" fill="#656b76" r="1"/><path d="m48 35.5a.5.5 0 0 1 -.447-.724 2.742 2.742 0 0 1 3.671-1.223.5.5 0 0 1 -.448.894 1.74 1.74 0 0 0 -2.329.777.5.5 0 0 1 -.447.276z" fill="#ff7373"/><path d="m53 37.5a.5.5 0 0 1 -.447-.276 2.416 2.416 0 0 0 -2.643-1.284l-1.127.233a.507.507 0 0 1 -.59-.389.5.5 0 0 1 .389-.591l1.127-.232a3.421 3.421 0 0 1 3.738 1.815.5.5 0 0 1 -.447.724z" fill="#ff7373"/><path d="m50 40.5a.5.5 0 0 1 -.447-.724 1.736 1.736 0 0 0 -.777-2.329.5.5 0 1 1 .448-.894 2.735 2.735 0 0 1 1.223 3.671.5.5 0 0 1 -.447.276z" fill="#ef5350"/><path d="m58.6 24.36a4.929 4.929 0 0 1 -1.46 1.38l-2.3-1.7a.961.961 0 0 0 -1.13-.02.989.989 0 0 1 -1.39-.25 1.007 1.007 0 0 1 .25-1.39 2.958 2.958 0 0 1 3.46.05l2.46 1.82a.384.384 0 0 1 .11.11z" fill="#a31a1a"/><path d="m60.58 19.43-.71 1.91-1.28-.22a1 1 0 0 1 -.81-1.16.982.982 0 0 1 1.15-.81z" fill="#c62828"/><path d="m56.3 22.63a5.339 5.339 0 0 1 -3 .92 5.816 5.816 0 0 1 -.92-.08 1.742 1.742 0 0 0 -.22-.05 1.025 1.025 0 0 1 .41-1.04 2.958 2.958 0 0 1 3.46.05z" fill="#c62828"/><g fill="#efad1b"><path d="m44.74 42.03a17.823 17.823 0 0 1 -.56 1.93l-2.74-.48a1 1 0 1 1 .35-1.97z"/><path d="m42.55 47.32a14.425 14.425 0 0 1 -1.16 1.62c-.01 0-.02-.01-.03-.02l-2.08-1.72a1 1 0 0 1 1.28-1.54z"/><path d="m26.38 53.11-.17 1.99a.127.127 0 0 1 -.01.06q-.495-.06-.99-.15l-.99-.17.17-1.9a1 1 0 1 1 1.99.17z"/><path d="m21.44 53.33-.17.98-1.97-.34.17-.99a1 1 0 0 1 1.16-.81.987.987 0 0 1 .81 1.16z"/></g><path d="m50 38h-11a3 3 0 0 1 -3-3v-3h2v1a3 3 0 0 0 3 3h7.762a1 1 0 0 1 .9.55 3.258 3.258 0 0 1 .338 1.45z" fill="#ef5350"/></g></g></svg>